<svg xmlns="http://www.w3.org/2000/svg" width="18" height="12" viewBox="0 0 18 12">
    <g fill="none" fill-rule="evenodd">
        <path fill="#F5F5F5" d="M16.652.01H1.348C.604.01 0 .594 0 1.316v8.821c0 .722.604 1.307 1.348 1.307h15.304c.744 0 1.348-.585 1.348-1.307V1.317c0-.722-.604-1.308-1.348-1.308z"/>
        <g fill="#FF4B55">
            <path d="M.074.89h17.852a1.346 1.346 0 0 0-1.274-.88H1.348C.758.01.257.376.074.89zM0 3.528h18v1H0zM0 1.769h18v1H0zM0 5.866c0 .166.139.301.31.301H18v-.88H0v.58zM0 8.806h18v1H0zM17.926 10.565H.074c.183.512.684.88 1.274.88h15.304c.59 0 1.091-.368 1.274-.88zM0 7.047h18v1H0z"/>
        </g>
        <path fill="#41479B" d="M.31 6.167H8.07c.171 0 .31-.135.31-.3V.31a.306.306 0 0 0-.31-.3h-6.72C.603.01 0 .594 0 1.316v4.55c0 .165.139.3.31.3z"/>
        <g fill="#F5F5F5">
            <path d="M.871.7l.07.2.216.001c.028 0 .04.036.018.052L1 1.078l.065.2c.009.027-.022.048-.045.032l-.176-.122-.177.122c-.023.016-.053-.005-.045-.031l.066-.201L.513.953C.49.937.502.902.53.902L.747.9.816.7C.825.674.863.674.871.7zM.871 1.745l.07.2.216.002c.028 0 .04.034.018.05L1 2.124l.065.2c.009.027-.022.048-.045.032l-.176-.122-.177.122c-.023.016-.053-.005-.045-.031l.066-.201-.175-.125C.49 1.982.502 1.947.53 1.947l.217-.002.069-.2c.009-.026.047-.026.055 0zM.871 2.79l.07.2.216.002c.028 0 .04.035.018.05L1 3.169l.065.2c.009.027-.022.048-.045.032l-.176-.122-.177.122c-.023.016-.053-.005-.045-.031l.066-.201-.175-.125C.49 3.027.502 2.992.53 2.992l.217-.002.069-.2c.009-.026.047-.026.055 0zM.871 3.835l.07.2.216.002c.028 0 .04.035.018.05L1 4.214l.065.2c.009.027-.022.048-.045.032l-.176-.122-.177.122c-.023.016-.053-.005-.045-.031l.066-.201-.175-.125C.49 4.072.502 4.037.53 4.037l.217-.002.069-.2c.009-.026.047-.026.055 0zM.871 4.88l.07.2.216.002c.028 0 .04.035.018.05L1 5.259l.065.2c.009.027-.022.048-.045.032l-.176-.122-.177.122c-.023.016-.053-.005-.045-.031l.066-.201-.175-.125C.49 5.117.502 5.082.53 5.082l.217-.002.069-.2c.009-.026.047-.026.055 0zM1.708 1.212l.069.2.217.002c.028 0 .04.035.017.051l-.175.125.066.2c.008.027-.022.048-.045.033L1.68 1.7l-.176.123c-.023.015-.054-.006-.045-.032l.065-.2-.175-.126c-.022-.016-.01-.05.018-.051l.217-.002.068-.2c.01-.025.047-.025.056 0zM1.708 2.258l.069.2h.217c.028.001.04.036.017.052l-.175.125.066.201c.008.026-.022.048-.045.032l-.177-.123-.176.123c-.023.015-.054-.006-.045-.032l.065-.2-.175-.126c-.022-.016-.01-.05.018-.051l.217-.002.068-.2c.01-.025.047-.025.056 0zM1.708 3.303l.069.2h.217c.028.001.04.036.017.052l-.175.125.066.201c.008.026-.022.048-.045.032L1.68 3.79l-.176.123c-.023.015-.054-.006-.045-.032l.065-.2-.175-.126c-.022-.016-.01-.05.018-.051l.217-.002.068-.2c.01-.025.047-.025.056 0zM1.708 4.348l.069.2.217.001c.028 0 .04.035.017.051l-.175.125.066.201c.008.026-.022.048-.045.032l-.177-.123-.176.123c-.023.016-.054-.006-.045-.032l.065-.2L1.35 4.6c-.022-.016-.01-.05.018-.051l.217-.002.068-.2c.01-.025.047-.025.056 0zM2.544.7l.07.2L2.83.9c.028 0 .04.036.017.052l-.174.125.065.2c.009.027-.022.048-.045.032l-.176-.122-.177.122c-.023.016-.053-.005-.045-.031l.066-.201-.175-.125C2.163.936 2.175.902 2.203.9L2.42.9 2.49.7c.009-.026.047-.026.055 0zM2.544 1.745l.07.2.216.002c.028 0 .04.034.017.05l-.174.126.065.2c.009.027-.022.048-.045.032l-.176-.122-.177.122c-.023.016-.053-.005-.045-.031l.066-.201-.175-.125c-.023-.017-.011-.051.017-.051l.217-.002.069-.2c.009-.026.047-.026.055 0zM2.544 2.79l.07.2.216.002c.028 0 .04.035.017.05l-.174.126.065.2c.009.027-.022.048-.045.032l-.176-.122-.177.122c-.023.016-.053-.005-.045-.031l.066-.201-.175-.125c-.023-.016-.011-.051.017-.051l.217-.002.069-.2c.009-.026.047-.026.055 0zM2.544 3.835l.07.2.216.002c.028 0 .04.035.017.05l-.174.126.065.2c.009.027-.022.048-.045.032l-.176-.122-.177.122c-.023.016-.053-.005-.045-.031l.066-.201-.175-.125c-.023-.016-.011-.051.017-.051l.217-.002.069-.2c.009-.026.047-.026.055 0zM2.544 4.88l.07.2.216.002c.028 0 .04.035.017.05l-.174.126.065.2c.009.027-.022.048-.045.032l-.176-.122-.177.122c-.023.016-.053-.005-.045-.031l.066-.201-.175-.125c-.023-.016-.011-.051.017-.051l.217-.002.069-.2c.009-.026.047-.026.055 0zM3.38 1.212l.07.2.217.002c.028 0 .04.035.017.051l-.175.125.066.2c.008.027-.022.048-.045.033L3.353 1.7l-.176.123c-.023.015-.054-.006-.045-.032l.065-.2-.175-.126c-.022-.016-.01-.05.018-.051l.217-.002.068-.2c.01-.025.047-.025.056 0zM3.38 2.258l.07.2h.217c.028.001.04.036.017.052l-.175.125.066.201c.008.026-.022.048-.045.032l-.177-.123-.176.123c-.023.015-.054-.006-.045-.032l.065-.2-.175-.126c-.022-.016-.01-.05.018-.051l.217-.002.068-.2c.01-.025.047-.025.056 0zM3.38 3.303l.07.2h.217c.028.001.04.036.017.052l-.175.125.066.201c.008.026-.022.048-.045.032l-.177-.123-.176.123c-.023.015-.054-.006-.045-.032l.065-.2-.175-.126c-.022-.016-.01-.05.018-.051l.217-.002.068-.2c.01-.025.047-.025.056 0zM3.38 4.348l.07.2.217.001c.028 0 .04.035.017.051l-.175.125.066.201c.008.026-.022.048-.045.032l-.177-.123-.176.123c-.023.016-.054-.006-.045-.032l.065-.2-.175-.126c-.022-.016-.01-.05.018-.051l.217-.002.068-.2c.01-.025.047-.025.056 0zM4.217.7l.07.2.216.001c.028 0 .04.036.017.052l-.174.125.065.2c.009.027-.022.048-.045.032l-.176-.122-.177.122c-.023.016-.053-.005-.045-.031l.066-.201-.175-.125c-.023-.016-.011-.051.017-.051L4.093.9l.069-.2c.009-.026.047-.026.055 0zM4.217 1.745l.07.2.216.002c.028 0 .04.034.017.05l-.174.126.065.2c.009.027-.022.048-.045.032l-.176-.122-.177.122c-.023.016-.053-.005-.045-.031l.066-.201-.175-.125c-.023-.017-.011-.051.017-.051l.217-.002.069-.2c.009-.026.047-.026.055 0zM4.217 2.79l.07.2.216.002c.028 0 .04.035.017.05l-.174.126.065.2c.009.027-.022.048-.045.032l-.176-.122-.177.122c-.023.016-.053-.005-.045-.031l.066-.201-.175-.125c-.023-.016-.011-.051.017-.051l.217-.002.069-.2c.009-.026.047-.026.055 0zM4.217 3.835l.07.2.216.002c.028 0 .04.035.017.05l-.174.126.065.2c.009.027-.022.048-.045.032l-.176-.122-.177.122c-.023.016-.053-.005-.045-.031l.066-.201-.175-.125c-.023-.016-.011-.051.017-.051l.217-.002.069-.2c.009-.026.047-.026.055 0zM4.217 4.88l.07.2.216.002c.028 0 .04.035.017.05l-.174.126.065.2c.009.027-.022.048-.045.032l-.176-.122-.177.122c-.023.016-.053-.005-.045-.031l.066-.201-.175-.125c-.023-.016-.011-.051.017-.051l.217-.002.069-.2c.009-.026.047-.026.055 0zM5.054 1.212l.069.2.217.002c.028 0 .04.035.017.051l-.175.125.066.2c.008.027-.022.048-.045.033L5.026 1.7l-.177.123c-.022.015-.053-.006-.044-.032l.065-.2-.175-.126c-.022-.016-.01-.05.018-.051l.217-.002.068-.2c.01-.025.047-.025.056 0zM5.054 2.258l.069.2h.217c.028.001.04.036.017.052l-.175.125.066.201c.008.026-.022.048-.045.032l-.177-.123-.177.123c-.022.015-.053-.006-.044-.032l.065-.2-.175-.126c-.022-.016-.01-.05.018-.051l.217-.002.068-.2c.01-.025.047-.025.056 0zM5.054 3.303l.069.2h.217c.028.001.04.036.017.052l-.175.125.066.201c.008.026-.022.048-.045.032l-.177-.123-.177.123c-.022.015-.053-.006-.044-.032l.065-.2-.175-.126c-.022-.016-.01-.05.018-.051l.217-.002.068-.2c.01-.025.047-.025.056 0zM5.054 4.348l.069.2.217.001c.028 0 .04.035.017.051l-.175.125.066.201c.008.026-.022.048-.045.032l-.177-.123-.177.123c-.022.016-.053-.006-.044-.032l.065-.2-.175-.126c-.022-.016-.01-.05.018-.051l.217-.002.068-.2c.01-.025.047-.025.056 0zM5.89.7l.07.2.216.001c.028 0 .04.036.017.052l-.174.125.065.2c.009.027-.022.048-.045.032l-.176-.122-.177.122c-.023.016-.053-.005-.045-.031l.066-.201-.175-.125C5.509.936 5.52.902 5.549.9L5.766.9l.069-.2c.009-.026.047-.026.055 0zM5.89 1.745l.07.2.216.002c.028 0 .04.034.017.05l-.174.126.065.2c.009.027-.022.048-.045.032l-.176-.122-.177.122c-.023.016-.053-.005-.045-.031l.066-.201-.175-.125c-.023-.017-.011-.051.017-.051l.217-.002.069-.2c.009-.026.047-.026.055 0zM5.89 2.79l.07.2.216.002c.028 0 .04.035.017.05l-.174.126.065.2c.009.027-.022.048-.045.032l-.176-.122-.177.122c-.023.016-.053-.005-.045-.031l.066-.201-.175-.125c-.023-.016-.011-.051.017-.051l.217-.002.069-.2c.009-.026.047-.026.055 0zM5.89 3.835l.07.2.216.002c.028 0 .04.035.017.05l-.174.126.065.2c.009.027-.022.048-.045.032l-.176-.122-.177.122c-.023.016-.053-.005-.045-.031l.066-.201-.175-.125c-.023-.016-.011-.051.017-.051l.217-.002.069-.2c.009-.026.047-.026.055 0zM5.89 4.88l.07.2.216.002c.028 0 .04.035.017.05l-.174.126.065.2c.009.027-.022.048-.045.032l-.176-.122-.177.122c-.023.016-.053-.005-.045-.031l.066-.201-.175-.125c-.023-.016-.011-.051.017-.051l.217-.002.069-.2c.009-.026.047-.026.055 0zM6.727 1.212l.069.2.217.002c.028 0 .04.035.017.051l-.175.125.066.2c.008.027-.022.048-.045.033L6.699 1.7l-.177.123c-.022.015-.053-.006-.044-.032l.065-.2-.175-.126c-.022-.016-.01-.05.018-.051l.217-.002.068-.2c.01-.025.047-.025.056 0zM6.727 2.258l.069.2h.217c.028.001.04.036.017.052l-.175.125.066.201c.008.026-.022.048-.045.032l-.177-.123-.177.123c-.022.015-.053-.006-.044-.032l.065-.2-.175-.126c-.022-.016-.01-.05.018-.051l.217-.002.068-.2c.01-.025.047-.025.056 0zM6.727 3.303l.069.2h.217c.028.001.04.036.017.052l-.175.125.066.201c.008.026-.022.048-.045.032l-.177-.123-.177.123c-.022.015-.053-.006-.044-.032l.065-.2-.175-.126c-.022-.016-.01-.05.018-.051l.217-.002.068-.2c.01-.025.047-.025.056 0zM6.727 4.348l.069.2.217.001c.028 0 .04.035.017.051l-.175.125.066.201c.008.026-.022.048-.045.032l-.177-.123-.177.123c-.022.016-.053-.006-.044-.032l.065-.2-.175-.126c-.022-.016-.01-.05.018-.051l.217-.002.068-.2c.01-.025.047-.025.056 0zM7.563.7l.07.2.216.001c.028 0 .04.036.017.052l-.174.125.065.2c.009.027-.022.048-.045.032l-.176-.122-.177.122c-.023.016-.053-.005-.045-.031l.066-.201-.175-.125C7.182.936 7.194.902 7.222.9L7.439.9l.069-.2c.009-.026.046-.026.055 0zM7.563 1.745l.07.2.216.002c.028 0 .04.034.017.05l-.174.126.065.2c.009.027-.022.048-.045.032l-.176-.122-.177.122c-.023.016-.053-.005-.045-.031l.066-.201-.175-.125c-.023-.017-.011-.051.017-.051l.217-.002.069-.2c.009-.026.046-.026.055 0zM7.563 2.79l.07.2.216.002c.028 0 .04.035.017.05l-.174.126.065.2c.009.027-.022.048-.045.032l-.176-.122-.177.122c-.023.016-.053-.005-.045-.031l.066-.201-.175-.125c-.023-.016-.011-.051.017-.051l.217-.002.069-.2c.009-.026.046-.026.055 0zM7.563 3.835l.07.2.216.002c.028 0 .04.035.017.05l-.174.126.065.2c.009.027-.022.048-.045.032l-.176-.122-.177.122c-.023.016-.053-.005-.045-.031l.066-.201-.175-.125c-.023-.016-.011-.051.017-.051l.217-.002.069-.2c.009-.026.046-.026.055 0zM7.563 4.88l.07.2.216.002c.028 0 .04.035.017.05l-.174.126.065.2c.009.027-.022.048-.045.032l-.176-.122-.177.122c-.023.016-.053-.005-.045-.031l.066-.201-.175-.125c-.023-.016-.011-.051.017-.051l.217-.002.069-.2c.009-.026.046-.026.055 0z"/>
        </g>
    </g>
</svg>
