<svg xmlns="http://www.w3.org/2000/svg" xmlns:xlink="http://www.w3.org/1999/xlink" width="14" height="14" viewBox="0 0 14 14">
    <defs>
        <path id="a" d="M12.543 6.984l1.255-1.228a.65.65 0 0 0-.29-1.1l-1.71-.437.481-1.693a.661.661 0 0 0-.809-.81L9.778 2.2 9.342.489c-.115-.484-.752-.66-1.1-.292L7.013 1.462 5.786.197C5.44-.167 4.802 0 4.686.488l-.437 1.71-1.692-.481a.661.661 0 0 0-.81.81l.483 1.692-1.71.436A.65.65 0 0 0 .23 5.756l1.255 1.228L.229 8.212A.65.65 0 0 0 .52 9.313l1.71.437-.482 1.692a.661.661 0 0 0 .81.81l1.691-.482.436 1.71c.122.507.756.655 1.1.291l1.229-1.255L8.24 13.77c.342.368.983.204 1.1-.291l.437-1.71 1.692.482a.661.661 0 0 0 .81-.81l-.483-1.692 1.71-.437a.65.65 0 0 0 .291-1.1l-1.255-1.229z"/>
    </defs>
    <g fill="none" fill-rule="evenodd">
        <mask id="b" fill="#fff">
            <use xlink:href="#a"/>
        </mask>
        <use fill="#FFF" fill-opacity="0" xlink:href="#a"/>
        <g fill="#249AF3" mask="url(#b)">
            <path d="M0 0h14v14H0z"/>
        </g>
        <path fill="#FFF" fill-rule="nonzero" d="M6.45 9.29l3.523-3.522a.306.306 0 0 0 0-.433l-.433-.433a.306.306 0 0 0-.433 0L6.234 7.774l-1.34-1.34a.306.306 0 0 0-.434 0l-.433.433a.306.306 0 0 0 0 .433l1.99 1.99c.12.12.314.12.434 0z" mask="url(#b)"/>
    </g>
</svg>
